<?xml version="1.0" encoding="UTF-8"?>
<svg id="Camada_1" data-name="Camada 1" xmlns="http://www.w3.org/2000/svg" viewBox="0 0 559.53 146.9">
  <defs>
    <style>
      .cls-1 {
        fill: #015a7b;
      }

      .cls-2 {
        fill: #065c76;
      }
    </style>
  </defs>
  <g>
    <path class="cls-1" d="M196.97,146.38c-.57,0-.86-.32-.86-.95v-22.81c0-.63.29-.95.86-.95h8.32c3.32,0,5.72.62,7.21,1.86,1.49,1.24,2.23,2.88,2.23,4.91,0,1.79-.62,3.3-1.87,4.51-1.24,1.22-2.97,1.92-5.19,2.1v.03c1.17.87,1.95,1.54,2.33,1.99s.8,1.07,1.27,1.83l3.68,6.32c.45.76.36,1.14-.25,1.14h-1.77c-.49,0-.86-.22-1.12-.67l-3.58-6.15c-.52-.88-1.26-1.75-2.22-2.6-.96-.85-2.17-1.28-3.6-1.28h-3v9.75c0,.63-.29.95-.86.95h-1.58ZM199.42,132.86h4.98c2.24,0,3.96-.3,5.17-.89,1.21-.59,1.81-1.83,1.81-3.73,0-1.45-.55-2.43-1.65-2.96-1.1-.52-2.6-.78-4.5-.78h-5.81v8.36Z"/>
    <path class="cls-1" d="M220.99,146.38c-.57,0-.86-.32-.86-.95v-22.81c0-.63.29-.95.86-.95h15.08c.63,0,.95.26.95.78v1.27c0,.52-.32.78-.95.78h-12.63v7.65h11.6c.63,0,.95.26.95.78v1.28c0,.52-.32.78-.95.78h-11.6v8.58h13.15c.63,0,.95.26.95.78v1.27c0,.52-.32.78-.95.78h-15.59Z"/>
    <path class="cls-1" d="M240.3,122.81c-.29-.76-.17-1.14.35-1.14h1.54c.54,0,.92.28,1.13.84l5.73,15.42c.28.68.63,1.59,1.06,2.73.42,1.14.71,2.05.85,2.73h.08c.15-.68.43-1.59.85-2.73.42-1.14.77-2.05,1.06-2.73l5.73-15.42c.21-.56.59-.84,1.13-.84h1.54c.52,0,.64.38.35,1.14l-8.36,22.52c-.26.7-.64,1.05-1.14,1.05h-2.41c-.49,0-.87-.35-1.14-1.05l-8.36-22.52Z"/>
    <path class="cls-1" d="M265.92,146.38c-.57,0-.86-.32-.86-.95v-22.81c0-.63.29-.95.86-.95h1.58c.57,0,.86.32.86.95v22.81c0,.63-.29.95-.86.95h-1.58Z"/>
    <path class="cls-1" d="M274.15,144.52c-.61-.55-.77-1.03-.48-1.45l.9-1.29c.31-.45.81-.41,1.5.1.91.68,1.85,1.24,2.83,1.67s2.17.66,3.58.66c1.03,0,1.91-.16,2.62-.47.71-.31,1.28-.76,1.71-1.34s.65-1.28.65-2.11c0-.6-.09-1.15-.27-1.67-.18-.51-.46-.94-.85-1.29-.39-.34-.8-.62-1.22-.81-.7-.31-1.75-.68-3.14-1.09s-2.62-.86-3.66-1.35c-1.03-.5-1.86-1.1-2.47-1.81-.61-.71-1.02-1.44-1.22-2.19s-.3-1.6-.3-2.56c0-1.46.42-2.71,1.27-3.77.85-1.05,1.89-1.75,3.13-2.1s2.49-.52,3.77-.52c1.46,0,2.73.19,3.81.56,1.08.38,2.04.87,2.89,1.47.6.42.73.87.41,1.34l-.88,1.26c-.26.38-.78.3-1.55-.24-.58-.41-1.3-.8-2.14-1.16-.84-.36-1.68-.54-2.51-.54-1.06,0-1.94.12-2.64.37-.7.25-1.25.66-1.65,1.25-.4.59-.6,1.26-.6,2.03,0,.48.05.93.14,1.34.09.41.33.82.71,1.25.38.42.84.75,1.38.98.72.31,1.85.68,3.37,1.1,1.52.42,2.85.93,3.99,1.54,1.06.56,1.82,1.15,2.28,1.77.47.62.83,1.28,1.09,2,.26.72.39,1.53.39,2.42,0,1.63-.42,2.99-1.26,4.08-.84,1.09-1.83,1.85-2.98,2.28-1.15.42-2.59.64-4.33.64-2.08,0-3.8-.24-5.17-.72-1.37-.48-2.39-1.03-3.07-1.65Z"/>
    <path class="cls-1" d="M293.98,124.64c-.66,0-.98-.26-.98-.78v-1.41c0-.52.33-.78.98-.78h18.79c.65,0,.98.26.98.78v1.41c0,.52-.33.78-.98.78h-7.74v20.8c0,.63-.29.95-.86.95h-1.58c-.57,0-.86-.32-.86-.95v-20.8h-7.74Z"/>
    <path class="cls-1" d="M315.33,146.38c-.53,0-.65-.38-.36-1.14l8.58-22.52c.26-.7.64-1.05,1.14-1.05h2.41c.49,0,.87.35,1.14,1.05l8.58,22.52c.29.76.17,1.14-.36,1.14h-1.55c-.54,0-.92-.28-1.14-.84l-2.16-5.7h-11.42l-2.16,5.7c-.22.56-.6.84-1.14.84h-1.55ZM321.26,137.01h9.26l-2.62-6.89c-.31-.64-.61-1.36-.91-2.14-.3-.78-.65-1.89-1.06-3.33h-.09c-.41,1.44-.76,2.54-1.06,3.33-.3.78-.6,1.49-.91,2.14l-2.62,6.89Z"/>
    <path class="cls-1" d="M352.72,146.38c-.58,0-.86-.32-.86-.95v-22.81c0-.63.29-.95.86-.95h6.36c4.87,0,8.25,1.08,10.16,3.23,1.9,2.15,2.85,5.18,2.85,9.09s-.95,6.95-2.85,9.12c-1.9,2.18-5.29,3.26-10.16,3.26h-6.36ZM355.16,143.56h3.76c3.79,0,6.34-.8,7.66-2.41,1.31-1.61,1.97-3.99,1.97-7.15s-.66-5.54-1.97-7.13c-1.32-1.6-3.87-2.39-7.66-2.39h-3.76v19.09Z"/>
    <path class="cls-1" d="M375.25,146.38c-.53,0-.65-.38-.36-1.14l8.58-22.52c.26-.7.64-1.05,1.14-1.05h2.41c.49,0,.87.35,1.14,1.05l8.58,22.52c.29.76.17,1.14-.36,1.14h-1.55c-.54,0-.92-.28-1.14-.84l-2.16-5.7h-11.42l-2.16,5.7c-.22.56-.6.84-1.14.84h-1.55ZM381.18,137.01h9.26l-2.62-6.89c-.31-.64-.61-1.36-.91-2.14-.3-.78-.65-1.89-1.06-3.33h-.09c-.41,1.44-.76,2.54-1.06,3.33-.3.78-.6,1.49-.91,2.14l-2.62,6.89Z"/>
    <path class="cls-1" d="M412.64,146.38c-.58,0-.86-.32-.86-.95v-22.81c0-.63.29-.95.86-.95h7.24c3.91,0,6.54.66,7.91,1.97s2.05,3.12,2.05,5.42-.68,4.1-2.05,5.42-4,1.97-7.91,1.97h-4.79v8.98c0,.63-.29.95-.86.95h-1.58ZM415.09,133.63h4.84c2.53,0,4.25-.36,5.17-1.08s1.38-1.88,1.38-3.49-.46-2.77-1.38-3.49-2.64-1.08-5.17-1.08h-4.84v9.13Z"/>
    <path class="cls-1" d="M432.97,134.03c0-4.02,1.04-7.17,3.12-9.45,2.08-2.28,4.97-3.42,8.67-3.42,2.22,0,4.03.38,5.43,1.15,1.4.76,2.43,1.66,3.08,2.7.4.64.4,1.11-.02,1.4l-1.29.9c-.43.3-.85.12-1.28-.53-.34-.52-.99-1.13-1.95-1.84-.95-.71-2.22-1.07-3.81-1.07-2.81,0-4.92.89-6.32,2.68s-2.1,4.29-2.1,7.5.68,5.72,2.05,7.5,3.55,2.68,6.55,2.68c1.49,0,2.79-.18,3.9-.54,1.11-.36,1.89-.86,2.33-1.51v-4.57h-5.12c-.63,0-.95-.26-.95-.78v-1.27c0-.52.32-.78.95-.78h7.48c.63,0,.95.26.95.78v8.13c-1.4,1.02-2.8,1.82-4.2,2.38s-3.24.84-5.51.84c-3.79,0-6.73-1.14-8.82-3.42-2.09-2.28-3.14-5.43-3.14-9.45Z"/>
    <path class="cls-1" d="M460.5,146.38c-.57,0-.86-.32-.86-.95v-22.81c0-.63.29-.95.86-.95h6.72c3.9,0,6.54.63,7.89,1.9,1.35,1.26,2.03,2.79,2.03,4.57,0,1.41-.56,2.61-1.69,3.59-1.13.98-2.22,1.56-3.27,1.73v.05c1.16.1,2.46.68,3.88,1.73s2.14,2.48,2.14,4.28c0,1.95-.72,3.58-2.16,4.89s-4.1,1.96-7.97,1.96h-7.58ZM462.95,132.46h4.33c1.92,0,3.48-.41,4.69-1.23s1.82-1.85,1.82-3.09-.45-2.08-1.36-2.71c-.91-.62-2.62-.93-5.15-.93h-4.33v7.96ZM462.95,143.56h4.58c2.47,0,4.28-.3,5.43-.91,1.15-.61,1.72-1.68,1.72-3.22,0-1.42-.58-2.53-1.75-3.31s-2.97-1.17-5.4-1.17h-4.58v8.62Z"/>
    <path class="cls-1" d="M481.69,134.03c0-4.02,1-7.17,2.99-9.45,1.99-2.28,4.86-3.42,8.59-3.42,2.18,0,3.99.37,5.41,1.11,1.42.74,2.45,1.75,3.07,3.04.32.67.27,1.13-.16,1.38l-1.36.79c-.46.26-.87.05-1.22-.65-.38-.72-1-1.4-1.86-2.03-.86-.63-2.1-.95-3.71-.95-2.87,0-4.96.89-6.26,2.68s-1.96,4.29-1.96,7.5.65,5.72,1.96,7.5,3.39,2.68,6.26,2.68c1.65,0,2.98-.38,3.97-1.14.99-.76,1.71-1.55,2.16-2.38.36-.67.77-.87,1.24-.6l1.43.81c.41.24.45.7.1,1.38-.68,1.32-1.78,2.42-3.31,3.3-1.53.88-3.45,1.32-5.77,1.32-3.73,0-6.6-1.14-8.59-3.42-1.99-2.28-2.99-5.43-2.99-9.45Z"/>
  </g>
  <g>
    <g>
      <path class="cls-2" d="M258.64,81.34v-6.06h6.06l-21.22,21.22h-6.06v-7.58h-4.55s0-18.19,0-18.19l7.58-7.58v18.19h18.19ZM213.16,29.8h-6.07v18.19s18.19,0,18.19,0l-7.58,7.58h-18.19s0-4.55,0-4.55h-7.58v-6.07l21.23-21.22v6.06ZM232.86,55.57v-18.19l7.58-7.58v18.19s18.19,0,18.19,0l-7.58,7.58h-18.19ZM205.58,110.14h24.26s7.58-7.58,7.58-7.58h-24.25s0-13.64,0-13.64h4.55s7.58-7.58,7.58-7.58h-18.2v-18.19l-7.58,7.58v4.55s-13.64,0-13.64,0v-24.26l-7.58,7.58v24.25h13.64s0,13.64,0,13.64h13.64v13.64Z"/>
      <path class="cls-2" d="M543.06,60.89h16.47v-4.79h-10.01v-19.45h-6.46v24.25ZM531.09,51.13h-6.08l3.13-9.48h.07l2.88,9.48ZM515.04,60.89h6.57l1.91-5.18h9.1l1.81,5.18h7.09l-9.35-24.25h-7.92l-9.21,24.25ZM426.51,60.89h17.47v-4.59h-11.01v-5.49h10.04v-4.59h-10.04v-5h10.63v-4.59h-17.09v24.25ZM423.27,55.26c-1.77.69-3.93,1.25-6.04,1.25-4.72,0-8.09-2.88-8.09-7.64s2.99-7.85,7.57-7.85c2.22,0,4.24.56,6.32,1.7l.52-5.25c-2.33-.69-4.73-1.25-7.19-1.25-7.99,0-13.9,4.2-13.9,12.65,0,9.17,7.47,12.44,13.93,12.44,3.3,0,5.35-.52,7.19-.97l-.31-5.07ZM374.74,48.77c0-4.2,1.56-7.75,5.49-7.75s5.49,3.54,5.49,7.75-1.56,7.75-5.49,7.75-5.49-3.75-5.49-7.75ZM368.07,48.77c0,7.71,4.24,12.54,12.16,12.54s12.16-4.83,12.16-12.54-4.17-12.54-12.16-12.54-12.16,4.76-12.16,12.54ZM367.12,55.26c-1.77.69-3.93,1.25-6.04,1.25-4.72,0-8.09-2.88-8.09-7.64s2.99-7.85,7.57-7.85c2.22,0,4.24.56,6.32,1.7l.52-5.25c-2.33-.69-4.72-1.25-7.19-1.25-7.99,0-13.9,4.2-13.9,12.65,0,9.17,7.47,12.44,13.93,12.44,3.3,0,5.35-.52,7.19-.97l-.31-5.07ZM321.07,60.89h5.94l-.21-16.57h.07l8.48,16.57h8.02v-24.25h-5.91l.1,16.47h-.07l-8.2-16.47h-8.23v24.25ZM279.24,41.23h1.87c2.15,0,4.24.21,4.24,2.43,0,2.05-2.19,2.57-4.31,2.57h-1.81v-5ZM279.24,50.61h1.98c2.22,0,4.76.24,4.76,2.88,0,2.47-2.47,2.81-4.83,2.81h-1.91v-5.7ZM272.78,60.89h10.21c4.34,0,9.45-1.22,9.45-7.02,0-2.95-1.67-4.69-4.9-5.35v-.07c2.71-.9,4.27-2.61,4.27-5.66,0-4.17-3.37-6.15-7.89-6.15h-11.15v24.25ZM309.18,51.13h-6.08l3.13-9.48h.07l2.88,9.48ZM293.13,60.89h6.57l1.91-5.18h9.1l1.81,5.18h7.09l-9.34-24.25h-7.92l-9.21,24.25ZM500.31,41.23h1.7c2.47,0,4.72.42,4.72,2.67,0,2.74-2.64,2.81-4.72,2.81h-1.7v-5.49ZM493.84,60.89h6.46v-9.59h1.35c2.4,0,3.23,1.04,4.55,5.21l1.39,4.38h6.74l-2.36-6.6c-1.22-2.95-1.35-4.79-3.44-5.35v-.07c3.13-.73,4.66-2.88,4.66-6.11,0-4.17-3.51-6.11-7.82-6.11h-11.53v24.25ZM478.54,60.89h6.46v-19.45h5.98v-4.79h-18.41v4.79h5.98v19.45ZM447.37,60.89h5.94l-.21-16.57h.07l8.48,16.57h8.02v-24.25h-5.91l.1,16.47h-.07l-8.2-16.47h-8.23v24.25ZM404.02,96.61c2.15.69,4.97,1.04,7.23,1.04,5.38,0,10.66-1.7,10.66-7.99,0-8.75-11.46-6.11-11.46-10.04,0-2.12,2.71-2.26,4.34-2.26,1.84,0,3.72.35,5.39,1.11l.42-5c-1.63-.56-3.93-.9-6.25-.9-4.86,0-10.56,1.6-10.56,7.43,0,8.82,11.46,5.98,11.46,10.49,0,1.95-1.95,2.36-4,2.36-2.67,0-5-.69-6.67-1.6l-.56,5.35ZM435.65,97.24h16.47v-4.79h-10.01v-19.45h-6.46v24.25ZM424.79,97.24h6.46v-24.25h-6.46v24.25ZM392.69,87.48h-6.08l3.13-9.48h.07l2.88,9.48ZM376.64,97.24h6.57l1.91-5.18h9.1l1.81,5.18h7.09l-9.34-24.25h-7.92l-9.21,24.25ZM361.93,77.58h1.7c2.47,0,4.72.42,4.72,2.67,0,2.74-2.64,2.81-4.72,2.81h-1.7v-5.49ZM355.47,97.24h6.46v-9.59h1.35c2.4,0,3.23,1.04,4.55,5.21l1.39,4.38h6.74l-2.36-6.6c-1.22-2.95-1.35-4.79-3.44-5.35v-.07c3.13-.73,4.66-2.88,4.66-6.11,0-4.17-3.51-6.11-7.82-6.11h-11.53v24.25ZM339.3,77.58h1.88c2.15,0,4.24.21,4.24,2.43,0,2.05-2.19,2.57-4.31,2.57h-1.81v-5ZM339.3,86.95h1.98c2.22,0,4.76.24,4.76,2.88,0,2.47-2.47,2.81-4.83,2.81h-1.91v-5.7ZM332.84,97.24h10.21c4.34,0,9.45-1.22,9.45-7.02,0-2.95-1.67-4.69-4.9-5.35v-.07c2.71-.9,4.27-2.61,4.27-5.66,0-4.17-3.37-6.15-7.89-6.15h-11.15v24.25ZM304.02,85.11c0-4.2,1.56-7.75,5.49-7.75s5.49,3.54,5.49,7.75-1.56,7.75-5.49,7.75-5.49-3.75-5.49-7.75ZM297.35,85.11c0,7.71,4.24,12.54,12.16,12.54s12.16-4.83,12.16-12.54-4.17-12.54-12.16-12.54-12.16,4.76-12.16,12.54ZM279.24,77.78h2.5c4.72,0,7.54,2.5,7.54,7.33s-2.71,7.33-7.54,7.33h-2.5v-14.66ZM272.78,97.24h8.82c8.27,0,14.35-3.16,14.35-12.23s-5.91-12.02-14.35-12.02h-8.82v24.25Z"/>
    </g>
    <path class="cls-2" d="M107.72,100.09c-3.39,2.43-7.54,3.86-12.01,3.86-11.41,0-20.7-9.28-20.7-20.7s9.15-20.56,20.45-20.69v-13.68c-13.29.09-24.79,7.73-30.43,18.85-5.67-11.18-17.27-18.85-30.67-18.85-.75,0-1.49.03-2.22.08l17.78-27.81-11.7-7.48S10.44,57.24,7.47,61.8c-4.49,6.89-7.47,13.34-7.47,21.46,0,18.98,15.39,34.37,34.37,34.37,13.4,0,25-7.67,30.67-18.85,5.67,11.18,17.27,18.85,30.67,18.85,7.51,0,14.46-2.42,20.11-6.51l-8.1-11.03ZM34.37,103.95c-11.41,0-20.7-9.28-20.7-20.7,0-5.4,2.08-10.33,5.48-14.02h.02s.06-.08.06-.08c3.78-4.06,9.17-6.6,15.14-6.6,11.41,0,20.7,9.28,20.7,20.7s-9.28,20.7-20.7,20.7ZM123.84,92.18c-1.53-.25-2.98-.48-4.35-.67-1.37-.19-2.68-.35-3.93-.48-1.25-.13-2.49-.24-3.7-.34l-1.68,2.94c.69,1.01,1.41,2.02,2.17,3.03.76,1.01,1.56,2.05,2.42,3.13.86,1.08,1.79,2.22,2.78,3.4,1,1.19,2.72,3.19,2.9,3.4,1.07-.79,2.35-2.44,2.35-2.63-.39-.42-.92-1.02-1.33-1.49-.41-.46-.81-.93-1.21-1.39l3.08-5.39c.6.11,1.2.22,1.81.33.61.11,1.45.25,2.01.37,0,0,.83-1.28,1.21-3.38-.26-.06-3-.59-4.52-.84ZM118.19,98.96c-.47-.56-.92-1.1-1.34-1.62-.42-.52-.81-1-1.17-1.42-.36-.43-.67-.81-.93-1.14-.27-.33-.48-.59-.64-.77.24.03.58.08,1,.14.42.06.91.13,1.46.21.55.08,1.16.18,1.82.29.66.11,1.35.24,2.06.37l-2.25,3.94ZM129.72,84.41l-11.55,1.51c-.24-.55-.49-1.28-.76-2.17-.26-.89-.46-1.84-.59-2.84-.13-1.01-.11-1.88.07-2.59.18-.71.48-1.29.92-1.75.43-.46.97-.81,1.62-1.07.65-.25,1.38-.43,2.19-.54,0,0,6.29-.83,6.67-.88.51,1.11.8,3.39.8,3.39l-6.62.83c-1.09.14-1.85.39-2.26.74-.42.35-.57.92-.47,1.7.03.24.08.5.14.77.06.27.12.51.17.72,0,0,9.12-1.16,9.53-1.21.27,1.84.14,3.39.14,3.39ZM122.49,63.04c-.24-.75-.66-1.46-1.24-2.13-.59-.68-1.24-1.19-1.95-1.54-.71-.35-1.44-.53-2.2-.56-.76-.03-1.53.11-2.31.42-.77.31-1.52.77-2.24,1.39-.72.62-1.27,1.3-1.67,2.03-.4.73-.63,1.47-.71,2.22-.07.75.01,1.5.26,2.25.25.75.65,1.45,1.22,2.11.56.65,1.2,1.14,1.9,1.49.71.35,1.44.54,2.2.58.76.04,1.53-.09,2.32-.37.78-.29,1.53-.74,2.25-1.36.72-.62,1.27-1.3,1.68-2.03.4-.74.65-1.48.73-2.24.08-.76,0-1.51-.25-2.26ZM119.52,64.81c-.19.73-.68,1.44-1.47,2.13-.8.69-1.56,1.07-2.3,1.15-.74.07-1.36-.19-1.87-.77-.51-.59-.68-1.24-.5-1.95.18-.71.67-1.42,1.46-2.11.8-.69,1.57-1.08,2.31-1.17.74-.09,1.37.16,1.88.75.51.59.67,1.25.49,1.98ZM100.45,61.93c-.59-.35-1.04-.67-1.36-.95l1.47-2.3c.33.27.69.53,1.09.79.4.26.87.49,1.42.69,1.01.37,1.61.27,1.81-.29.05-.13.07-.25.06-.37,0-.12-.06-.24-.15-.39s-.23-.31-.42-.49-.42-.41-.72-.67c-.61-.52-1.1-.99-1.46-1.41-.37-.42-.63-.83-.79-1.22-.16-.39-.23-.78-.2-1.18.02-.4.12-.83.29-1.31.41-1.12,1.13-1.81,2.18-2.08,1.05-.27,2.25,0,3.79.56,1.01.37,1.79.77,2.42,1.15.71.43,1.29.89,1.29.89l-1.46,2.36c-.47-.41-.97-.79-1.5-1.12-.53-.33-1.07-.6-1.64-.8-.59-.21-1.03-.31-1.31-.28-.29.03-.49.2-.61.53-.09.26-.02.54.23.85.25.31.65.7,1.2,1.18.43.37.82.73,1.16,1.08.34.35.6.72.78,1.1.19.38.29.8.3,1.24.02.45-.07.94-.27,1.49-.39,1.06-1.09,1.76-2.1,2.09-1.01.33-2.21.24-3.59-.26-.69-.25-1.33-.55-1.92-.9Z"/>
    <rect class="cls-2" x="153.27" width="1.91" height="131.3"/>
  </g>
</svg>